HIERARCHY
ROOT Root
{
  OFFSET 0.0 0.0 0.0
  CHANNELS 6 Xposition Yposition Zposition Zrotation Yrotation Xrotation
  JOINT Hips
  {
    OFFSET 0.0 100.0 0.0
    CHANNELS 6 Xposition Yposition Zposition Zrotation Yrotation Xrotation
    JOINT Spine1
    {
      OFFSET -0.013727 5.003763 -0.053727
      CHANNELS 3 Zrotation Yrotation Xrotation
      JOINT Spine2
      {
        OFFSET -0.0 7.125301 -0.029825
        CHANNELS 3 Zrotation Yrotation Xrotation
        JOINT Chest
        {
          OFFSET -1e-06 7.550063 -0.815971
          CHANNELS 3 Zrotation Yrotation Xrotation
          JOINT Neck1
          {
            OFFSET -0.181677 26.311295 -0.553348
            CHANNELS 3 Zrotation Yrotation Xrotation
            JOINT Neck2
            {
              OFFSET -3e-06 7.709397 2.302585
              CHANNELS 3 Zrotation Yrotation Xrotation
              JOINT Head
              {
                OFFSET -5e-06 6.128916 1.953709
                CHANNELS 3 Zrotation Yrotation Xrotation
                JOINT HeadEnd
                {
                  OFFSET 0.003598 16.065403 -1.835379
                  CHANNELS 3 Zrotation Yrotation Xrotation
                }
                JOINT Jaw
                {
                  OFFSET 0.002637 0.475592 3.094941
                  CHANNELS 3 Zrotation Yrotation Xrotation
                }
                JOINT LeftEye
                {
                  OFFSET 3.206381 5.380205 7.586883
                  CHANNELS 3 Zrotation Yrotation Xrotation
                }
                JOINT RightEye
                {
                  OFFSET -3.22244 5.361869 7.558234
                  CHANNELS 3 Zrotation Yrotation Xrotation
                }
              }
            }
          }
          JOINT LeftShoulder
          {
            OFFSET 1.621652 23.237164 5.113413
            CHANNELS 3 Zrotation Yrotation Xrotation
            JOINT LeftArm
            {
              OFFSET 14.919846 2e-06 -5.502326
              CHANNELS 3 Zrotation Yrotation Xrotation
              JOINT LeftForeArm
              {
                OFFSET 28.739307 0.0 -0.002588
                CHANNELS 3 Zrotation Yrotation Xrotation
                JOINT LeftHand
                {
                  OFFSET 27.093981 -1e-06 0.002609
                  CHANNELS 3 Zrotation Yrotation Xrotation
                  JOINT LeftHandThumb1
                  {
                    OFFSET 2.276482 -1.392045 3.191413
                    CHANNELS 3 Zrotation Yrotation Xrotation
                    JOINT LeftHandThumb2
                    {
                      OFFSET 4.012836 -1.828127 1.641654
                      CHANNELS 3 Zrotation Yrotation Xrotation
                      JOINT LeftHandThumb3
                      {
                        OFFSET 2.798515 0.0 -3e-06
                        CHANNELS 3 Zrotation Yrotation Xrotation
                        JOINT LeftHandThumbEnd
                        {
                          OFFSET 3.180793 -4e-06 4e-06
                          CHANNELS 3 Zrotation Yrotation Xrotation
                        }
                      }
                    }
                  }
                  JOINT LeftHandIndex1
                  {
                    OFFSET 3.247555 -0.531998 2.296169
                    CHANNELS 3 Zrotation Yrotation Xrotation
                    JOINT LeftHandIndex2
                    {
                      OFFSET 6.364578 0.01206 0.1786
                      CHANNELS 3 Zrotation Yrotation Xrotation
                      JOINT LeftHandIndex3
                      {
                        OFFSET 3.662364 0.0 0.0
                        CHANNELS 3 Zrotation Yrotation Xrotation
                        JOINT LeftHandIndex4
                        {
                          OFFSET 2.329242 4e-06 4e-06
                          CHANNELS 3 Zrotation Yrotation Xrotation
                          JOINT LeftHandIndexEnd
                          {
                            OFFSET 2.759615 -0.180537 -0.113024
                            CHANNELS 3 Zrotation Yrotation Xrotation
                          }
                        }
                      }
                    }
                  }
                  JOINT LeftHandMiddle1
                  {
                    OFFSET 3.163495 0.240981 1.000332
                    CHANNELS 3 Zrotation Yrotation Xrotation
                    JOINT LeftHandMiddle2
                    {
                      OFFSET 6.19078 -0.259278 -1.002548
                      CHANNELS 3 Zrotation Yrotation Xrotation
                      JOINT LeftHandMiddle3
                      {
                        OFFSET 4.35652 -4e-06 -1e-06
                        CHANNELS 3 Zrotation Yrotation Xrotation
                        JOINT LeftHandMiddle4
                        {
                          OFFSET 2.996877 -8e-06 0.0
                          CHANNELS 3 Zrotation Yrotation Xrotation
                          JOINT LeftHandMiddleEnd
                          {
                            OFFSET 2.304287 -0.294569 -0.031741
                            CHANNELS 3 Zrotation Yrotation Xrotation
                          }
                        }
                      }
                    }
                  }
                  JOINT LeftHandRing1
                  {
                    OFFSET 2.882643 -0.053652 -0.322543
                    CHANNELS 3 Zrotation Yrotation Xrotation
                    JOINT LeftHandRing2
                    {
                      OFFSET 5.854541 -0.486202 -1.373841
                      CHANNELS 3 Zrotation Yrotation Xrotation
                      JOINT LeftHandRing3
                      {
                        OFFSET 4.350578 0.0 3e-06
                        CHANNELS 3 Zrotation Yrotation Xrotation
                        JOINT LeftHandRing4
                        {
                          OFFSET 2.651321 7e-06 2e-06
                          CHANNELS 3 Zrotation Yrotation Xrotation
                          JOINT LeftHandRingEnd
                          {
                            OFFSET 1.936105 0.077687 -7.1e-05
                            CHANNELS 3 Zrotation Yrotation Xrotation
                          }
                        }
                      }
                    }
                  }
                  JOINT LeftHandPinky1
                  {
                    OFFSET 2.8655 -0.310005 -1.600378
                    CHANNELS 3 Zrotation Yrotation Xrotation
                    JOINT LeftHandPinky2
                    {
                      OFFSET 5.087849 -1.331141 -1.77123
                      CHANNELS 3 Zrotation Yrotation Xrotation
                      JOINT LeftHandPinky3
                      {
                        OFFSET 3.070974 4e-06 0.0
                        CHANNELS 3 Zrotation Yrotation Xrotation
                        JOINT LeftHandPinky4
                        {
                          OFFSET 1.549672 0.0 1e-06
                          CHANNELS 3 Zrotation Yrotation Xrotation
                          JOINT LeftHandPinkyEnd
                          {
                            OFFSET 1.944893 -0.157802 0.057219
                            CHANNELS 3 Zrotation Yrotation Xrotation
                          }
                        }
                      }
                    }
                  }
                }
              }
            }
          }
          JOINT RightShoulder
          {
            OFFSET -1.380118 23.180309 5.214158
            CHANNELS 3 Zrotation Yrotation Xrotation
            JOINT RightArm
            {
              OFFSET -15.037196 1.2e-05 -5.545604
              CHANNELS 3 Zrotation Yrotation Xrotation
              JOINT RightForeArm
              {
                OFFSET -28.736639 2e-06 -0.002597
                CHANNELS 3 Zrotation Yrotation Xrotation
                JOINT RightHand
                {
                  OFFSET -27.133619 -0.0 0.002613
                  CHANNELS 3 Zrotation Yrotation Xrotation
                  JOINT RightHandThumb1
                  {
                    OFFSET -2.274032 -1.383988 3.163127
                    CHANNELS 3 Zrotation Yrotation Xrotation
                    JOINT RightHandThumb2
                    {
                      OFFSET -4.011429 -1.827466 1.640914
                      CHANNELS 3 Zrotation Yrotation Xrotation
                      JOINT RightHandThumb3
                      {
                        OFFSET -2.794935 -4e-06 -3e-06
                        CHANNELS 3 Zrotation Yrotation Xrotation
                        JOINT RightHandThumbEnd
                        {
                          OFFSET -3.183852 4e-06 1e-06
                          CHANNELS 3 Zrotation Yrotation Xrotation
                        }
                      }
                    }
                  }
                  JOINT RightHandIndex1
                  {
                    OFFSET -3.253266 -0.520057 2.282866
                    CHANNELS 3 Zrotation Yrotation Xrotation
                    JOINT RightHandIndex2
                    {
                      OFFSET -6.341917 0.012471 0.178266
                      CHANNELS 3 Zrotation Yrotation Xrotation
                      JOINT RightHandIndex3
                      {
                        OFFSET -3.654871 -8e-06 -0.0
                        CHANNELS 3 Zrotation Yrotation Xrotation
                        JOINT RightHandIndex4
                        {
                          OFFSET -2.327586 0.0 1e-06
                          CHANNELS 3 Zrotation Yrotation Xrotation
                          JOINT RightHandIndexEnd
                          {
                            OFFSET -2.76179 -0.180656 -0.113078
                            CHANNELS 3 Zrotation Yrotation Xrotation
                          }
                        }
                      }
                    }
                  }
                  JOINT RightHandMiddle1
                  {
                    OFFSET -3.168106 0.246593 1.00103
                    CHANNELS 3 Zrotation Yrotation Xrotation
                    JOINT RightHandMiddle2
                    {
                      OFFSET -6.180828 -0.258836 -1.000895
                      CHANNELS 3 Zrotation Yrotation Xrotation
                      JOINT RightHandMiddle3
                      {
                        OFFSET -4.348901 0.0 -0.0
                        CHANNELS 3 Zrotation Yrotation Xrotation
                        JOINT RightHandMiddle4
                        {
                          OFFSET -3.00024 -4e-06 -2e-06
                          CHANNELS 3 Zrotation Yrotation Xrotation
                          JOINT RightHandMiddleEnd
                          {
                            OFFSET -2.30252 -0.29437 -0.031706
                            CHANNELS 3 Zrotation Yrotation Xrotation
                          }
                        }
                      }
                    }
                  }
                  JOINT RightHandRing1
                  {
                    OFFSET -2.88569 -0.067952 -0.308858
                    CHANNELS 3 Zrotation Yrotation Xrotation
                    JOINT RightHandRing2
                    {
                      OFFSET -5.854198 -0.48613 -1.373731
                      CHANNELS 3 Zrotation Yrotation Xrotation
                      JOINT RightHandRing3
                      {
                        OFFSET -4.33881 -4e-06 -0.0
                        CHANNELS 3 Zrotation Yrotation Xrotation
                        JOINT RightHandRing4
                        {
                          OFFSET -2.654903 -4e-06 4e-06
                          CHANNELS 3 Zrotation Yrotation Xrotation
                          JOINT RightHandRingEnd
                          {
                            OFFSET -1.933568 0.077527 -5.2e-05
                            CHANNELS 3 Zrotation Yrotation Xrotation
                          }
                        }
                      }
                    }
                  }
                  JOINT RightHandPinky1
                  {
                    OFFSET -2.866425 -0.342796 -1.584145
                    CHANNELS 3 Zrotation Yrotation Xrotation
                    JOINT RightHandPinky2
                    {
                      OFFSET -5.091371 -1.332055 -1.772385
                      CHANNELS 3 Zrotation Yrotation Xrotation
                      JOINT RightHandPinky3
                      {
                        OFFSET -3.062664 -4e-06 1e-06
                        CHANNELS 3 Zrotation Yrotation Xrotation
                        JOINT RightHandPinky4
                        {
                          OFFSET -1.546529 4e-06 -2e-06
                          CHANNELS 3 Zrotation Yrotation Xrotation
                          JOINT RightHandPinkyEnd
                          {
                            OFFSET -1.945119 -0.157718 0.057211
                            CHANNELS 3 Zrotation Yrotation Xrotation
                          }
                        }
                      }
                    }
                  }
                }
              }
            }
          }
        }
      }
    }
    JOINT LeftLeg
    {
      OFFSET 10.043214 -8.434526 2.595655
      CHANNELS 3 Zrotation Yrotation Xrotation
      JOINT LeftShin
      {
        OFFSET -1e-06 -43.221752 -0.802913
        CHANNELS 3 Zrotation Yrotation Xrotation
        JOINT LeftFoot
        {
          OFFSET 1e-06 -42.155094 -3.481523
          CHANNELS 3 Zrotation Yrotation Xrotation
          JOINT LeftToeBase
          {
            OFFSET 0.0 -5.059472 13.231529
            CHANNELS 3 Zrotation Yrotation Xrotation
            JOINT LeftToeEnd
            {
              OFFSET -0.009607 -1.647619 6.513017
              CHANNELS 3 Zrotation Yrotation Xrotation
            }
          }
        }
      }
    }
    JOINT RightLeg
    {
      OFFSET -10.047278 -8.29526 2.620317
      CHANNELS 3 Zrotation Yrotation Xrotation
      JOINT RightShin
      {
        OFFSET 1e-06 -43.362206 -0.805556
        CHANNELS 3 Zrotation Yrotation Xrotation
        JOINT RightFoot
        {
          OFFSET 2e-06 -42.117393 -3.478398
          CHANNELS 3 Zrotation Yrotation Xrotation
          JOINT RightToeBase
          {
            OFFSET -0.0 -5.079609 13.284196
            CHANNELS 3 Zrotation Yrotation Xrotation
            JOINT RightToeEnd
            {
              OFFSET 0.009532 -1.634378 6.460591
              CHANNELS 3 Zrotation Yrotation Xrotation
            }
          }
        }
      }
    }
  }
}
MOTION
Frames: 4
Frame Time: 0.03333333333333333
0.0 0.0 0.0 0.0 -0.0 0.0 -0.368113 99.667702 1.578444 0.530787 -1.004293 -2.90046 0.405597 0.276376 -1.253818 -0.267344 0.333605 -5.74293 0.69973 -1.13099 9.656931 -0.536728 2.175312 -4.375257 -1.879794 -4.555196 -3.358084 -2.005382 -7.582099 -19.71295 7.7e-05 -2.3e-05 5e-06 0.03241 0.023894 0.062225 0.589977 -3.778228 -10.474471 -0.536947 3.803892 -10.423877 -5.110653 -3.880909 18.384743 -29.021334 -4.113596 52.472557 -177.380844 -78.364243 179.114029 11.759937 -54.964039 18.144535 -5.882112 9.86129 0.702589 -10.936878 -0.360573 7.156209 -1e-06 8.774829 -2e-06 -17.049204 17.670319 4.559856 -1.844033 2.498506 -2.50728 -10.163605 4.678948 4.621113 -20.976038 2e-06 3e-06 -21.226301 2.451702 -3.594001 -1e-06 -6e-06 -1e-06 -1.362682 2.240799 -0.746322 -21.334925 0.584915 3.008327 -13.82122 1e-06 2e-06 -23.88718 -0.249073 -0.839486 -61.38237 2.072016 -1.055078 -0.294027 1.679688 0.833256 -14.218217 0.093217 1.300584 -34.21207 -0.287555 0.967171 -20.033228 0.96454 1.212843 1e-06 2e-06 1e-06 -3.44039 0.788235 0.501656 -15.928194 -3.167308 2.999711 -6.33883 -0.0 2e-06 -18.123457 3.648188 -4.905669 -5e-06 -0.0 -1e-06 -1.79084 11.676778 9.231736 50.353134 63.260078 -21.007078 -178.578323 37.822613 -178.707077 5.71504 8.131292 17.116379 2.243543 -5.255038 -3.180159 14.282894 -0.826593 6.952504 -3e-06 -12.690609 0.0 16.814804 -16.550638 2.581373 1.665666 -1.955922 -2.8783 4.7278 -4.170589 4.993924 11.020528 5e-06 -2e-06 12.109053 -3.735715 -2.866786 1e-06 1e-06 -1e-06 1.291985 -1.92855 -1.49809 14.800129 0.567469 3.865608 14.242577 -1.341735 -6.660663 19.631969 0.143928 -0.648245 48.175804 -1.290322 -6.046139 0.353028 -1.511152 -0.03194 20.222801 3.684314 2.31663 18.787279 6e-06 0.0 10.751632 -0.479868 1.397908 1e-06 -1e-06 -1e-06 3.273807 0.305947 -0.580112 21.48682 11.830382 2.266133 8.162928 3e-06 -1e-06 18.399084 -3.798983 -4.940579 2e-06 0.0 -1e-06 2.499465 1.212904 5.231823 0.027913 -0.055102 4.604075 -5.129623 12.390637 -7.525949 1.640944 -2.107429 -0.466379 -0.0 -1e-06 2e-06 -4.685199 3.786098 0.128093 -0.087024 0.207964 10.501796 4.680293 -0.61673 -8.068605 -1.44143 1.039481 -0.693946 0.0 0.0 -1e-06 
0.0 0.0 0.0 0.0 -0.0 0.0 -0.363861 99.669037 1.502127 0.562781 -0.982565 -2.926139 0.389803 0.264671 -1.18069 -0.291583 0.324227 -5.701928 0.685319 -1.129211 9.66475 -0.318756 2.16336 -4.464404 -1.854235 -4.533005 -3.351216 -1.809149 -7.480173 -19.861057 7.7e-05 -2.3e-05 4e-06 0.028189 0.020651 0.06974 0.574037 -3.780969 -10.46954 -0.529025 3.800176 -10.417455 -5.071557 -3.959819 18.312801 -29.105684 -4.016302 52.654655 -177.599838 -78.196053 179.257217 11.659641 -54.95023 17.754217 -5.882104 9.861281 0.702588 -10.936865 -0.360573 7.156203 -1e-06 8.774821 -0.0 -17.008774 17.601448 4.578229 -1.844031 2.498504 -2.507278 -10.163593 4.678944 4.621108 -20.976011 -1e-06 -2e-06 -21.226273 2.451696 -3.594001 -0.0 -6e-06 1e-06 -1.36268 2.240798 -0.746325 -21.334904 0.584911 3.008318 -13.821205 -1e-06 0.0 -23.887157 -0.249078 -0.839486 -61.351322 2.048223 -1.04258 -0.294026 1.679686 0.833256 -14.218201 0.093217 1.30058 -34.212029 -0.287558 0.967169 -20.033203 0.96454 1.21284 0.0 2e-06 1e-06 -3.440387 0.788234 0.501656 -15.928176 -3.167305 2.99971 -6.338822 -0.0 1e-06 -18.123436 3.648183 -4.905668 -4e-06 -0.0 -2e-06 -1.684643 11.618731 9.334576 51.605862 63.22868 -20.200041 -178.551346 37.170414 -178.717026 3.57655 9.291347 16.780451 2.243541 -5.255038 -3.180159 14.28289 -0.826592 6.952503 -0.0 -12.690609 -3e-06 16.783695 -16.532143 2.522682 1.665668 -1.955922 -2.8783 4.727797 -4.170587 4.993924 11.020527 5e-06 -3e-06 12.109052 -3.735715 -2.866787 3e-06 2e-06 -1e-06 1.291985 -1.928551 -1.49809 14.800129 0.56747 3.865607 14.242573 -1.341737 -6.660662 19.631971 0.143928 -0.648246 48.049534 -1.302539 -6.030133 0.353029 -1.511152 -0.03194 20.222797 3.684313 2.31663 18.787273 7e-06 -2e-06 10.751629 -0.479867 1.397905 1e-06 -0.0 -2e-06 3.273806 0.305947 -0.58011 21.486813 11.83038 2.266135 8.162928 2e-06 -1e-06 18.399082 -3.798983 -4.940577 3e-06 -0.0 0.0 2.462694 1.254343 5.180864 0.03592 -0.067817 4.666232 -5.118366 12.392323 -7.498408 1.64064 -2.110462 -0.484769 0.0 -0.0 2e-06 -4.696872 3.920368 0.057041 -0.094834 0.219866 10.595078 4.671368 -0.688898 -8.025017 -1.444999 1.042157 -0.689469 0.0 0.0 -1e-06 
0.0 0.0 0.0 0.0 -0.0 0.0 -0.344527 99.670883 1.4251 0.589409 -0.986207 -2.958992 0.375596 0.267969 -1.127542 -0.311461 0.301067 -5.666419 0.679377 -1.146711 9.708437 -0.092699 2.123347 -4.49334 -1.853252 -4.530588 -3.3413 -1.638386 -7.385851 -19.880297 7.7e-05 -2.3e-05 5e-06 0.027207 0.026649 0.077177 0.565505 -3.774242 -10.4706 -0.522106 3.805731 -10.420045 -5.113693 -3.968948 18.299456 -29.12005 -3.940629 52.723347 -177.743225 -78.078201 179.282135 11.432372 -54.89732 17.460934 -5.882105 9.861284 0.702592 -10.93687 -0.360574 7.156204 -0.0 8.774822 -1e-06 -16.971136 17.512403 4.586134 -1.844033 2.498505 -2.507279 -10.163599 4.678944 4.621109 -20.976021 -3e-06 0.0 -21.226284 2.451696 -3.594 -1e-06 -6e-06 0.0 -1.362681 2.240798 -0.746322 -21.334913 0.584911 3.008323 -13.821213 -2e-06 0.0 -23.887169 -0.249077 -0.839483 -61.288025 2.033474 -1.033059 -0.294026 1.679687 0.833257 -14.218207 0.093216 1.300581 -34.212048 -0.287562 0.967169 -20.033209 0.964539 1.212842 0.0 1e-06 2e-06 -3.440388 0.788233 0.501654 -15.928185 -3.167307 2.999709 -6.338826 -0.0 0.0 -18.123444 3.648185 -4.905671 -3e-06 0.0 1e-06 -1.555827 11.574106 9.424298 52.48769 63.063644 -19.728615 -178.521225 36.598064 -178.667801 2.162026 10.20265 16.566839 2.243542 -5.255035 -3.180157 14.28289 -0.826593 6.9525 -3e-06 -12.690603 0.0 16.756752 -16.511223 2.481484 1.665665 -1.955924 -2.878298 4.727798 -4.170586 4.993924 11.020525 3e-06 -1e-06 12.109052 -3.735713 -2.866783 3e-06 1e-06 -1e-06 1.291985 -1.928548 -1.498088 14.800129 0.567471 3.865607 14.242569 -1.341734 -6.660657 19.631966 0.143928 -0.648244 47.994736 -1.312483 -6.002067 0.353029 -1.511151 -0.03194 20.222786 3.684311 2.31663 18.78727 5e-06 -0.0 10.751625 -0.479868 1.397907 1e-06 0.0 0.0 3.273806 0.305947 -0.580111 21.486809 11.830372 2.266132 8.162929 2e-06 -2e-06 18.39908 -3.798982 -4.940575 3e-06 -0.0 -2e-06 2.425335 1.304296 5.133968 0.041896 -0.077134 4.739872 -5.099358 12.407434 -7.476783 1.637873 -2.118392 -0.483993 0.0 -0.0 2e-06 -4.712124 4.067394 -0.001055 -0.097939 0.231553 10.65999 4.670109 -0.763497 -8.018559 -1.447217 1.04842 -0.694894 0.0 0.0 -1e-06 
0.0 0.0 0.0 0.0 -0.0 0.0 -0.312903 99.673233 1.342407 0.597541 -0.986239 -2.990838 0.370813 0.280542 -1.086926 -0.32344 0.281545 -5.633493 0.67246 -1.188681 9.769002 0.110783 2.054258 -4.484328 -1.84643 -4.509759 -3.334621 -1.491736 -7.327562 -19.811554 7.7e-05 -2.3e-05 4e-06 0.026935 0.033888 0.081815 0.563175 -3.766378 -10.478834 -0.520048 3.812695 -10.431497 -5.195409 -3.933087 18.317316 -29.067646 -3.912161 52.740505 -177.767334 -77.997314 179.187576 11.215137 -54.860012 17.261353 -5.882111 9.861292 0.702589 -10.936878 -0.360574 7.156214 -1e-06 8.77483 -2e-06 -16.941484 17.412493 4.589438 -1.844033 2.498506 -2.507282 -10.163605 4.678948 4.621115 -20.976034 -1e-06 3e-06 -21.226301 2.451701 -3.594002 -1e-06 -6e-06 1e-06 -1.362683 2.2408 -0.746326 -21.334929 0.584913 3.008329 -13.821223 -1e-06 1e-06 -23.887186 -0.249077 -0.839486 -61.228939 2.005662 -1.025039 -0.294024 1.679688 0.833256 -14.218217 0.093216 1.300581 -34.21207 -0.287558 0.96717 -20.033226 0.964541 1.212845 0.0 2e-06 1e-06 -3.44039 0.788233 0.501657 -15.928196 -3.16731 2.999709 -6.33883 -1e-06 2e-06 -18.123459 3.648186 -4.905674 -3e-06 0.0 -1e-06 -1.432095 11.558651 9.51444 53.043667 62.793114 -19.531498 -178.495789 36.133263 -178.652847 1.28586 10.931461 16.430761 2.243543 -5.25504 -3.18016 14.2829 -0.826592 6.952504 -3e-06 -12.690615 -3e-06 16.678814 -16.486389 2.485974 1.665669 -1.955924 -2.878301 4.7278 -4.170588 4.993925 11.020534 5e-06 -2e-06 12.109056 -3.735716 -2.866787 3e-06 1e-06 -2e-06 1.291987 -1.92855 -1.498091 14.800139 0.567469 3.865606 14.242585 -1.341737 -6.660665 19.631983 0.143929 -0.648246 47.930885 -1.326654 -5.982411 0.35303 -1.51115 -0.031941 20.222807 3.684316 2.316629 18.787287 7e-06 -1e-06 10.751636 -0.479867 1.397905 1e-06 0.0 1e-06 3.273809 0.305947 -0.580112 21.486828 11.830389 2.266135 8.162931 4e-06 -2e-06 18.399096 -3.798982 -4.940581 2e-06 0.0 -1e-06 2.402241 1.323652 5.040946 0.042634 -0.082382 4.888157 -5.086555 12.430396 -7.489557 1.634805 -2.12943 -0.469653 -0.0 0.0 2e-06 -4.713623 4.212285 -0.043472 -0.099868 0.235519 10.681128 4.699172 -0.86932 -7.987575 -1.447983 1.057965 -0.701388 0.0 0.0 -1e-06 
